<svg id="Layer_1" data-name="Layer 1" xmlns="http://www.w3.org/2000/svg" viewBox="0 0 1080 1080"><defs><style>.cls-1{fill:#eda117;}.cls-2{fill:#06b609;}</style></defs><path class="cls-1" d="M638,329.41c-59.63,29.67-83.71,78.92-93.44,115.08A86.48,86.48,0,0,0,538.24,460c-.16-5.32-.18-11.41.07-18.2,11.36-40.17,33-67.05,53.2-84.42l0,0C615,337.2,636.65,329.85,638,329.41Z"/><path class="cls-1" d="M660.46,314.3s10.25-19,30.26-6.51C690.72,307.79,677,325.73,660.46,314.3Z"/><path class="cls-1" d="M650.52,293.75s-22.38,7.38-14.31,29.05C636.21,322.8,653.35,318.9,650.52,293.75Z"/><path class="cls-1" d="M620.71,306.56s-20.11,11.15-8.53,31.53C612.18,338.09,630.6,329.45,620.71,306.56Z"/><path class="cls-1" d="M640.5,329.85s12.59,16,32,4.25C672.48,334.1,660.78,314.32,640.5,329.85Z"/><path class="cls-1" d="M617.06,343.82s14.8,16.16,32,3.69C649.08,347.51,635.8,328.76,617.06,343.82Z"/><path class="cls-1" d="M595.32,359.23s11.86,17.35,32.81,2.81C628.13,362,613.68,344.19,595.32,359.23Z"/><path class="cls-1" d="M594.69,324.17s-18.53,15.08-3.18,33.24C591.51,357.41,607.5,342.28,594.69,324.17Z"/><path class="cls-1" d="M573.47,342.5s-16.69,16.76-.23,32.64C573.24,375.14,589.11,362.29,573.47,342.5Z"/><path class="cls-1" d="M558.15,395.24c-9.32-6.79-10.85-14.83-10-21.27a0,0,0,0,1,0,0,27.3,27.3,0,0,1,1.61-6.17s0,0,0,0a27.7,27.7,0,0,1,2.77-5.42C573.44,379.18,558.15,395.24,558.15,395.24Z"/><path class="cls-1" d="M563.6,399.44s14.37,11.43,28.57-4.83C592.17,394.61,572.55,381.48,563.6,399.44Z"/><path class="cls-1" d="M577.89,378.83s14.4,13.14,29.31-2.61C607.2,376.22,591.7,362.93,577.89,378.83Z"/><path class="cls-2" d="M565,215.25c-16.7,34.54-26.73,69.36-32.65,100.75a84.68,84.68,0,0,0-9.13-19.52C538.5,246.42,564.46,215.92,565,215.25Z"/><path class="cls-2" d="M549.78,367.77c-.57,2.08-1.1,4.13-1.61,6.17A27.3,27.3,0,0,1,549.78,367.77Z"/><path class="cls-2" d="M621,398.27V518.41a86.31,86.31,0,0,1-84.5,86.31l-.92,0-.9,0a85.94,85.94,0,0,1-84.1-85.9V256.4h0a85.81,85.81,0,0,1,72.65,40.08A84.68,84.68,0,0,1,532.39,316a85.74,85.74,0,0,1,4.12,26.32V376.4c17.42-50.65,50-98.43,51.43-100.44a391.78,391.78,0,0,0-38.15,91.76s0,0,0,0a27.3,27.3,0,0,0-1.61,6.17,0,0,0,0,0,0,0,328.53,328.53,0,0,0-9.85,67.86c-.25,6.79-.23,12.88-.07,18.2A86.31,86.31,0,0,1,621,398.27Z"/><path class="cls-2" d="M509,695.84a42.84,42.84,0,0,1,4.06-19,34.18,34.18,0,0,1,12.08-13.69q8-5.34,19.78-7t27.15,1.18l13.9-7.49A267.38,267.38,0,0,0,556,641.31a145.36,145.36,0,0,0-27.37-3.52,79.2,79.2,0,0,0-23.52,2.67,45.05,45.05,0,0,0-18.39,9.95,46,46,0,0,0-12,18.17q-4.29,11.24-4.28,27.26H307.81L297.55,701h18.82v64.14a112.94,112.94,0,0,0,1.49,18,37.3,37.3,0,0,0,6.85,16.69c3.54,4.85,8.73,8.47,15.49,10.91s15.94,2.62,27.48.63q19.89-3.2,31.65-12.5t16.26-21.08a42.78,42.78,0,0,0,2.13-23.83A42.23,42.23,0,0,0,407,732.85q-8.37-9-22.24-12.72c-9.29-2.49-20.1-2-32.52,1.38V701h65.49v34.29a54,54,0,0,1,3.52,46.28,51.69,51.69,0,0,1-3.52,7.41v24.92l38.48-20.53V701h14.23V813.89L509,793.36V701h29a12.6,12.6,0,0,0-8,7,26.79,26.79,0,0,0-2.26,10.91,25.18,25.18,0,0,0,5.46,16.36q5.45,6.75,15.06,6.75a27,27,0,0,0,10.93-2.25,12.7,12.7,0,0,0,7-8q4.5,3.84,4.82,7.36a7.37,7.37,0,0,1-2.47,6.21,20.49,20.49,0,0,1-7.79,4.39,38,38,0,0,1-11.43,1.82,55.74,55.74,0,0,1-13.38-1.5,46.51,46.51,0,0,1-13.36-5.45V778l61.58,38.49,30.79-18-43.61-25.67a32.1,32.1,0,0,0,16.89-4.4,33.57,33.57,0,0,0,11.54-11.33A36.79,36.79,0,0,0,605,741.73a33.52,33.52,0,0,0-2.23-16.48,37.08,37.08,0,0,0-10.91-14.53c-5.15-4.35-12-7.6-20.52-9.73h35.89v16.08a42.39,42.39,0,0,1,2,4.22,44.17,44.17,0,0,1,2.94,21.63,48.29,48.29,0,0,1-3.3,13L643.14,778l28.22-18v53.88l35.94-20.53V731.78l-25.67-12.84-38.49,20.52V701h77.28v112.9l38.5-20.53V701h13.24l10.27-5.15Zm-136.82,56c4.72,1,8,2.62,9.84,4.91a9.7,9.7,0,0,1,2.05,8,23.31,23.31,0,0,1-3.33,8.67,26,26,0,0,1-6.18,6.84,11.51,11.51,0,0,1-6.86,2.77,22,22,0,0,1-7.91-1.17,8.52,8.52,0,0,1-4.59-4.61,29.62,29.62,0,0,1-2.26-9.41,151.76,151.76,0,0,1-.64-15.59C360.83,751,367.48,750.87,372.16,751.88Z"/><path class="cls-1" d="M440.62,837.85v23.79l-1.11-1.27c-.36-.42-.72-.84-1.07-1.27,0-.81.05-1.48.08-2s.05-1,.06-1.37,0-.66,0-.9v-.69a18.92,18.92,0,0,0-.52-4.72,7.26,7.26,0,0,0-1.39-3,2.07,2.07,0,0,0-2-.75,4.3,4.3,0,0,0-2.42,2c-.75,1.26-1.41,2.26-2,3a12.63,12.63,0,0,1-1.43,1.68,3,3,0,0,1-1,.7,2.3,2.3,0,0,1-.78.14,3.59,3.59,0,0,1-1.88-.5,6.25,6.25,0,0,1-1.47-1.25,9.93,9.93,0,0,1-1.13-1.61c-.32-.58-.62-1.13-.89-1.64l1.5-1.37q.12.41.3.93a5,5,0,0,0,.46,1,3,3,0,0,0,.67.78,1.27,1.27,0,0,0,.86.33,1,1,0,0,0,.49-.17,3,3,0,0,0,.74-.66c.31-.34.72-.81,1.21-1.41s1.13-1.41,1.88-2.4a11.58,11.58,0,0,0-.54-2.52,3.23,3.23,0,0,0-1-1.41,4.17,4.17,0,0,0-1.58-.77c-.63-.18-1.41-.37-2.36-.59a7.63,7.63,0,0,1-1.63-.62,10.72,10.72,0,0,1-1.71-1.11,13.22,13.22,0,0,1-1-.89c-.46-.43-1-1-1.74-1.69H442.6l2.17,2.26Zm-2.18,0H427.79a10.94,10.94,0,0,1,2.52,3,7.13,7.13,0,0,1,.75,3.11,6.11,6.11,0,0,1,2.08-1.64,2.42,2.42,0,0,1,1.79-.06,4.84,4.84,0,0,1,1.7,1.21,27.79,27.79,0,0,1,1.81,2.14Z"/><path class="cls-1" d="M449.21,837.85v23.59L447,859.18V842.44a4.33,4.33,0,0,0-.4-1.89,4.12,4.12,0,0,0-1.11-1.43,5.7,5.7,0,0,0-1.61-.93,5.26,5.26,0,0,0-1.88-.34l-2.26-2.26h2.58a5,5,0,0,1,3.19.91,6.16,6.16,0,0,1,1.81,3c0-.46,0-1,0-1.69s-.08-1.47-.16-2.38-.09-1.66-.12-2.32,0-1.22,0-1.68l.81.69a6.57,6.57,0,0,0,1.41,3.47h2l2.22,2.26Z"/><path class="cls-1" d="M466.87,837.85a12.69,12.69,0,0,0-4.39,1.89,12,12,0,0,0-3.15,3.23,14.23,14.23,0,0,0-1.77,4,18.61,18.61,0,0,0-.61,5,8.17,8.17,0,0,0,1.29,4.36c1.45,2,2.87,2.82,4.24,2.42a3.06,3.06,0,0,1-1.11-1.13,2.78,2.78,0,0,1-.35-1.33,2.25,2.25,0,0,1,.87-1.78,2.94,2.94,0,0,1,1.92-.72,2.47,2.47,0,0,1,1.93.91,3.32,3.32,0,0,1,.81,2.31,3.57,3.57,0,0,1-.32,1.5,3.83,3.83,0,0,1-.89,1.19,4.35,4.35,0,0,1-2.86,1.06c-2.64,0-4.66-1.31-6.05-4a15.16,15.16,0,0,1-1.78-7.46c0-3.92,1.6-7.76,4.8-11.49H452l-2.26-2.26h15Z"/><path class="cls-1" d="M483.28,837.85v24.28L482,860.31v0c-.3-.51-.6-1-.89-1.57a16.49,16.49,0,0,0-1-1.61,16.24,16.24,0,0,0-3.63-4,10.55,10.55,0,0,0-2.7-1.29,17.38,17.38,0,0,0-3.39-.68l-2.7-3.67,6-4.44a5.77,5.77,0,0,1-3.51-1,4.23,4.23,0,0,1-1.09-1.33,3.65,3.65,0,0,1-.4-1.73,3.52,3.52,0,0,1,1.11-2.67,3.83,3.83,0,0,1,2.72-1c1.83,0,2.77.61,2.82,1.85a1.82,1.82,0,0,1-.48,1.45,1.86,1.86,0,0,1-1.37.53,2.49,2.49,0,0,1-.83-.16,3.36,3.36,0,0,1-.91-.57,2,2,0,0,0-.4,1.29,2.09,2.09,0,0,0,1,1.78,4.18,4.18,0,0,0,2.5.68c.29,0,2.38-1.15,6.25-3.47v-3.1h4.19l2.26,2.26Zm-2.25,5a23,23,0,0,0-4.18,2.1,32,32,0,0,0-4.29,3.26,19.64,19.64,0,0,1,8.47,7.5Z"/><path class="cls-1" d="M495,837.85q-3.11.12-3.51,4.35a29.88,29.88,0,0,0,.61,6.25c.24,1.38.43,2.57.56,3.59a19.77,19.77,0,0,1,.21,2.58,6.15,6.15,0,0,1-.57,2.53,10.2,10.2,0,0,1-1.57,2.44,12.8,12.8,0,0,1-2.08,1.45,12.36,12.36,0,0,1-2.32,1l-1.29-1a14.73,14.73,0,0,0,2.18-1,5.83,5.83,0,0,0,1.73-1.43,6,6,0,0,0,1-3.75,10.44,10.44,0,0,0-.22-2c-.15-.76-.37-1.65-.67-2.64a17.17,17.17,0,0,1-.88-4.6,9.54,9.54,0,0,1,3.5-7.86H485.1l-2.26-2.26h11.38l2.25,2.26Z"/><path class="cls-1" d="M512.16,837.85v23.71l-1.25-1.49v0a19.43,19.43,0,0,0-1.07-2.36,14.1,14.1,0,0,0-1.35-1.89,19.35,19.35,0,0,0-1.73-1.92,13,13,0,0,0-7.7-3.15h0l-3-4.19A54.66,54.66,0,0,1,510,839.5v-1.65H494.54l-2.22-2.26h22.22l2.26,2.26Zm-11.73,19.36a2.23,2.23,0,0,1,.68-1.68,2.41,2.41,0,0,1,3.31,0,2.34,2.34,0,1,1-4,1.68Zm9.56-14a41,41,0,0,0-4.42,1.94,44.16,44.16,0,0,0-4.7,2.78,18.31,18.31,0,0,1,9.12,7.74Z"/><path class="cls-1" d="M552.86,837.85h-4.08v23.71l-.88-.89q-1.81-6.85-6.3-8.3a5.4,5.4,0,0,1-2.05,1.73,5,5,0,0,1-1.94.44,3.75,3.75,0,0,1-2.72-1.07,3.6,3.6,0,0,1-1.11-2.72,3.67,3.67,0,0,1,1.41-3,5.08,5.08,0,0,1,3.27-1,3.25,3.25,0,0,1,1.77.44,5.66,5.66,0,0,0-1.25-4.11,7.81,7.81,0,0,0-3.1-1.41,16.76,16.76,0,0,1-2.08-.75,9.8,9.8,0,0,1-1.43-.74,9.67,9.67,0,0,1-2.1-2.26l-2.38-2.34H550.6Zm-6.22,16.29V837.85h-11a27.54,27.54,0,0,1,4.84,4.72,9.35,9.35,0,0,1,2.14,5.88V849a4,4,0,0,1,0,.56,22,22,0,0,1,2.28,2.22,13,13,0,0,1,1.67,2.38Z"/><path class="cls-1" d="M566.61,837.85a12.75,12.75,0,0,0-4.4,1.89,12.08,12.08,0,0,0-3.14,3.23,14.54,14.54,0,0,0-1.78,4,19,19,0,0,0-.6,5,8,8,0,0,0,1.29,4.36c1.45,2,2.86,2.82,4.23,2.42a3.06,3.06,0,0,1-1.11-1.13,2.77,2.77,0,0,1-.34-1.33,2.25,2.25,0,0,1,.87-1.78,2.92,2.92,0,0,1,1.91-.72,2.49,2.49,0,0,1,1.94.91,3.32,3.32,0,0,1,.81,2.31,3.43,3.43,0,0,1-.33,1.5,3.8,3.8,0,0,1-.88,1.19,4.35,4.35,0,0,1-1.32.78,4.26,4.26,0,0,1-1.55.28c-2.63,0-4.65-1.31-6.05-4a15.26,15.26,0,0,1-1.77-7.46c0-3.92,1.6-7.76,4.8-11.49h-7.5l-2.26-2.26h15Z"/><path class="cls-1" d="M583,837.85v24.28l-1.29-1.82v0c-.29-.51-.59-1-.88-1.57a18.65,18.65,0,0,0-1-1.61,16.24,16.24,0,0,0-3.63-4,10.47,10.47,0,0,0-2.71-1.29,17.42,17.42,0,0,0-3.38-.68l-2.71-3.67,6-4.44a5.81,5.81,0,0,1-3.51-1,4.19,4.19,0,0,1-1.08-1.33,3.65,3.65,0,0,1-.41-1.73,3.52,3.52,0,0,1,1.11-2.67,3.85,3.85,0,0,1,2.72-1c1.83,0,2.77.61,2.83,1.85a1.77,1.77,0,0,1-1.86,2,2.54,2.54,0,0,1-.83-.16,3.32,3.32,0,0,1-.9-.57,2.05,2.05,0,0,0-.41,1.29,2.11,2.11,0,0,0,1,1.78,4.22,4.22,0,0,0,2.5.68c.3,0,2.38-1.15,6.25-3.47v-3.1H585l2.26,2.26Zm-2.26,5a22.64,22.64,0,0,0-4.17,2.1,32.74,32.74,0,0,0-4.3,3.26,19.58,19.58,0,0,1,8.47,7.5Z"/><path class="cls-1" d="M594.76,837.85q-3.1.12-3.51,4.35a28.6,28.6,0,0,0,.61,6.25c.24,1.38.42,2.57.56,3.59a21.4,21.4,0,0,1,.2,2.58,6.3,6.3,0,0,1-.56,2.53,10.25,10.25,0,0,1-1.58,2.44,12.64,12.64,0,0,1-4.39,2.46l-1.29-1a14.73,14.73,0,0,0,2.18-1,6.1,6.1,0,0,0,1.73-1.43,6,6,0,0,0,1-3.75,11.35,11.35,0,0,0-.22-2c-.15-.76-.38-1.65-.67-2.64a17.26,17.26,0,0,1-.89-4.6,9.52,9.52,0,0,1,3.51-7.86h-6.57l-2.26-2.26H594l2.26,2.26Z"/><path class="cls-1" d="M628.84,837.85H614.92q-.24,3.35,5.73,5.16c3.9,1.24,5.79,2.77,5.69,4.6q0,3.35-3.15,7.38-3.27,4.28-6.61,4.27a3.62,3.62,0,0,1-2.54-1.45,4.61,4.61,0,0,1-1.25-2.86v-17.1h-3.47l-2.22-2.26h19.44Zm-6.13,9.6a13,13,0,0,1-7.71-5.73v13.19c0,.88.34,1.33,1,1.33q1.9,0,4.36-3c1.66-2,2.5-3.57,2.5-4.84C622.87,847.84,622.81,847.5,622.71,847.45Z"/><path class="cls-1" d="M633.23,837.85v23.59l-2.18-2.26V842.44a4.33,4.33,0,0,0-.4-1.89,4.12,4.12,0,0,0-1.11-1.43,5.7,5.7,0,0,0-1.61-.93,5.26,5.26,0,0,0-1.88-.34l-2.25-2.26h2.58a4.92,4.92,0,0,1,3.18.91,6.16,6.16,0,0,1,1.82,3c0-.46,0-1,0-1.69s-.08-1.47-.16-2.38-.1-1.66-.13-2.32,0-1.22,0-1.68l.81.69a6.57,6.57,0,0,0,1.41,3.47h2l2.22,2.26Z"/><path class="cls-1" d="M660.29,832.85a26.22,26.22,0,0,0-2.42-1.92,30,30,0,0,0-3-1.88,11.79,11.79,0,0,0-3.17-1.28,13.93,13.93,0,0,0-3.36-.41,9.36,9.36,0,0,0-5.21,1.78c-2,1.29-3,2.72-3.1,4.31l.88,2.14h2.47l2.29,2.26H641.7v23.59l-2.3-2.26V837.85H636l-2.21-2.26h6l-1.58-1.49a2.59,2.59,0,0,1-.88-1.82q0-2.74,3.06-5.16a9.62,9.62,0,0,1,5.77-2.26q7.17,0,13.71,6.78Z"/><path class="cls-1" d="M667,837.85H655c.22.29.43.58.65.86s.41.55.6.79c2.31.81,3.85,1.67,4.6,2.58a6.27,6.27,0,0,1,1.81,4.68,5.6,5.6,0,0,1-2.21,4.48,13.32,13.32,0,0,1-5.05,2.3,36,36,0,0,1,4.9,3.58c1.74,1.48,3.61,3.25,5.63,5.29v0l.52,2.38a30.24,30.24,0,0,0-3.55-3.41,33.21,33.21,0,0,0-4.35-3,36.35,36.35,0,0,0-4.76-2.26,39,39,0,0,0-4.92-1.58l-2.7-5.64a15.86,15.86,0,0,0,6.33,1.85,8.41,8.41,0,0,0,4.64-.84q2.77-1.38,2.66-3.67a4.53,4.53,0,0,0-.22-1.42,3.72,3.72,0,0,0-.65-1.21,3.31,3.31,0,0,0-1-.84,2.31,2.31,0,0,0-1-.35,3.25,3.25,0,0,0-.79,0,2.11,2.11,0,0,0-.67.22,4,4,0,0,1-1.37,2.94,4.29,4.29,0,0,1-3,1.33,3.12,3.12,0,0,1-1.86-.62,2,2,0,0,1-.84-1.64,4.48,4.48,0,0,1,1.61-3.38,6,6,0,0,1,3.67-1.62c0-.43-.51-1-1.53-1.81h-8.07l-2.26-2.26h22.83Z"/><path class="cls-1" d="M670.22,837.85v10.52a25.45,25.45,0,0,1,2.6-2.48,33.21,33.21,0,0,1,5.66-3.75c.92-.47,1.75-.85,2.5-1.15l3.71,2.83a33.53,33.53,0,0,0-2.34,5.72,19,19,0,0,0-.8,5.29,36.58,36.58,0,0,0,.89,6.93l-1.58-.76c-.45-2.13-.8-4-1-5.65a31.77,31.77,0,0,1-.34-4,24.21,24.21,0,0,1,.77-6,17.22,17.22,0,0,0-5.51,3.57,18,18,0,0,0-3.93,5.46l-3.06-3.18V837.85h-2.38l-2.3-2.26h22.26l2.26,2.26Z"/><path class="cls-1" d="M691.71,837.85v23.59l-2.18-2.26V842.44a4.33,4.33,0,0,0-.4-1.89,4.12,4.12,0,0,0-1.11-1.43,5.7,5.7,0,0,0-1.61-.93,5.26,5.26,0,0,0-1.88-.34l-2.26-2.26h2.58a4.93,4.93,0,0,1,3.19.91,6.24,6.24,0,0,1,1.82,3c0-.46,0-1,0-1.69s-.08-1.47-.17-2.38-.09-1.66-.12-2.32,0-1.22,0-1.68l.81.69a6.57,6.57,0,0,0,1.41,3.47h2l2.22,2.26Z"/><path class="cls-1" d="M712.28,837.85v23.71L711,860.07v0a21.14,21.14,0,0,0-1.07-2.36,14.1,14.1,0,0,0-1.35-1.89,19.33,19.33,0,0,0-1.74-1.92,13,13,0,0,0-7.7-3.15h0l-3-4.19a54.6,54.6,0,0,1,13.87-7.1v-1.65H694.66l-2.22-2.26h22.22l2.26,2.26Zm-11.74,19.36a2.24,2.24,0,0,1,.69-1.68,2.41,2.41,0,0,1,3.31,0,2.35,2.35,0,0,1,0,3.31,2.35,2.35,0,0,1-4-1.63Zm9.56-14a41.78,41.78,0,0,0-4.41,1.94,43.19,43.19,0,0,0-4.7,2.78,18.24,18.24,0,0,1,9.11,7.74Z"/><path class="cls-1" d="M750.11,837.85H736.2q-.26,3.35,5.72,5.16t5.69,4.6q0,3.35-3.15,7.38c-2.17,2.85-4.38,4.27-6.61,4.27a3.64,3.64,0,0,1-2.54-1.45,4.61,4.61,0,0,1-1.25-2.86v-17.1h-3.47l-2.22-2.26h19.44Zm-6.13,9.6a12.89,12.89,0,0,1-7.7-5.73v13.19c0,.88.33,1.33,1,1.33q1.9,0,4.36-3t2.5-4.84C744.14,847.84,744.09,847.5,744,847.45Z"/><path class="cls-1" d="M754.51,837.85v23.59l-2.18-2.26V842.44a4.33,4.33,0,0,0-.41-1.89,4.12,4.12,0,0,0-1.11-1.43,5.56,5.56,0,0,0-1.61-.93,5.2,5.2,0,0,0-1.87-.34l-2.26-2.26h2.58a4.92,4.92,0,0,1,3.18.91,6.16,6.16,0,0,1,1.82,3c0-.46,0-1,0-1.69s-.08-1.47-.16-2.38-.1-1.66-.12-2.32,0-1.22,0-1.68l.8.69a6.49,6.49,0,0,0,1.42,3.47h2l2.22,2.26Z"/><path class="cls-1" d="M778.26,837.85v23.83l-2.34-2.18V846.6a3,3,0,0,0-.87-2.12,2.79,2.79,0,0,0-2.07-.91c-1.29,0-1.94.78-1.94,2.34a7.18,7.18,0,0,0,.2,1.42l-.93.36a4.74,4.74,0,0,0-1.81-3,5.25,5.25,0,0,0-3.39-1.17,3.89,3.89,0,0,0-1.61.35,4.83,4.83,0,0,0-1.35.9,4.21,4.21,0,0,0-.93,1.36,4,4,0,0,0-.34,1.63q0,2.75,3.26,3.22a3.56,3.56,0,0,1-.72-1.89,2.28,2.28,0,0,1,.78-1.71,2.5,2.5,0,0,1,1.76-.75q3.1.2,3.1,3.35a2.93,2.93,0,0,1-1,2.17,4.31,4.31,0,0,1-2.71,1,7.4,7.4,0,0,1-2.66-.46,6.19,6.19,0,0,1-2.08-1.31,6.26,6.26,0,0,1-1.35-2,7,7,0,0,1-.48-2.64,7.76,7.76,0,0,1,1.29-4.32,4.32,4.32,0,0,1,3.71-2.17q2.91,0,5.2,3a2.67,2.67,0,0,1,.93-1.94,2.7,2.7,0,0,1,1.86-.92q2.82,0,4.19,3.75v-6.21H757.53l-2.34-2.26h25l2.29,2.26Z"/></svg>